<mxfile host="app.diagrams.net" modified="2021-05-06T03:58:52.858Z" agent="5.0 (Windows NT 10.0; Win64; x64) AppleWebKit/537.36 (KHTML, like Gecko) Chrome/90.0.4430.93 Safari/537.36" etag="LZ_0Grmo6tsRee26fME3" version="14.6.10" type="github">
  <diagram id="LhH0nr-AVI9IxGLx0kxE" name="Page-1">
    <mxGraphModel dx="2062" dy="1081" grid="1" gridSize="10" guides="1" tooltips="1" connect="1" arrows="1" fold="1" page="1" pageScale="1" pageWidth="827" pageHeight="1169" math="0" shadow="0">
      <root>
        <mxCell id="0" />
        <mxCell id="1" parent="0" />
        <mxCell id="whwH6Rw1-n_d7cLh9lh3-3" style="edgeStyle=orthogonalEdgeStyle;rounded=0;orthogonalLoop=1;jettySize=auto;html=1;entryX=0.5;entryY=0;entryDx=0;entryDy=0;" edge="1" parent="1" source="3L2I7VCJFFc9-zEBdSOO-1" target="whwH6Rw1-n_d7cLh9lh3-2">
          <mxGeometry relative="1" as="geometry" />
        </mxCell>
        <mxCell id="whwH6Rw1-n_d7cLh9lh3-4" value="j蒋尚龙" style="edgeLabel;html=1;align=center;verticalAlign=middle;resizable=0;points=[];" vertex="1" connectable="0" parent="whwH6Rw1-n_d7cLh9lh3-3">
          <mxGeometry x="-0.2947" y="-1" relative="1" as="geometry">
            <mxPoint as="offset" />
          </mxGeometry>
        </mxCell>
        <mxCell id="3L2I7VCJFFc9-zEBdSOO-1" value="" style="whiteSpace=wrap;html=1;aspect=fixed;" parent="1" vertex="1">
          <mxGeometry x="170" y="70" width="100" height="100" as="geometry" />
        </mxCell>
        <mxCell id="whwH6Rw1-n_d7cLh9lh3-1" value="" style="html=1;shadow=0;dashed=0;align=center;verticalAlign=middle;shape=mxgraph.arrows2.arrow;dy=0.6;dx=40;flipH=1;notch=0;" vertex="1" parent="1">
          <mxGeometry x="364" y="90" width="100" height="70" as="geometry" />
        </mxCell>
        <mxCell id="whwH6Rw1-n_d7cLh9lh3-2" value="" style="whiteSpace=wrap;html=1;aspect=fixed;" vertex="1" parent="1">
          <mxGeometry x="180" y="360" width="80" height="80" as="geometry" />
        </mxCell>
      </root>
    </mxGraphModel>
  </diagram>
</mxfile>
